<svg width="32" height="32" viewBox="0 0 32 32" fill="none" xmlns="http://www.w3.org/2000/svg">
<g clip-path="url(#clip0_404_1951)">
<path d="M16 0L20 6H18V10H14V6H12L16 0Z" fill="#3A5C45"/>
<path d="M30 14V30H2V14H30ZM32 12H0V32H32V12Z" fill="#3A5C45"/>
<path d="M16 16C19.314 16 22 18.686 22 22C22 25.314 19.314 28 16 28H26V26H28V18H26V16H16Z" fill="#3A5C45"/>
<path d="M10 22C10 18.686 12.686 16 16 16H6V18H4V26H6V28H16C12.686 28 10 25.314 10 22Z" fill="#3A5C45"/>
</g>
<defs>
<clipPath id="clip0_404_1951">
<rect width="32" height="32" fill="white"/>
</clipPath>
</defs>
</svg>
